<svg width="12" height="12" viewBox="0 0 12 12" fill="none" xmlns="http://www.w3.org/2000/svg">
<path d="M3.54935 0.166016H8.44935C10.316 0.166016 11.8327 1.68268 11.8327 3.54935V8.44935C11.8327 9.34667 11.4762 10.2072 10.8417 10.8417C10.2072 11.4762 9.34667 11.8327 8.44935 11.8327H3.54935C1.68268 11.8327 0.166016 10.316 0.166016 8.44935V3.54935C0.166016 2.65203 0.522473 1.79147 1.15697 1.15697C1.79147 0.522473 2.65203 0.166016 3.54935 0.166016ZM3.43268 1.33268C2.87573 1.33268 2.34158 1.55393 1.94776 1.94776C1.55393 2.34158 1.33268 2.87573 1.33268 3.43268V8.56602C1.33268 9.72685 2.27185 10.666 3.43268 10.666H8.56602C9.12297 10.666 9.65711 10.4448 10.0509 10.0509C10.4448 9.65711 10.666 9.12297 10.666 8.56602V3.43268C10.666 2.27185 9.72685 1.33268 8.56602 1.33268H3.43268ZM9.06185 2.20768C9.25524 2.20768 9.4407 2.2845 9.57745 2.42125C9.71419 2.558 9.79102 2.74346 9.79102 2.93685C9.79102 3.13024 9.71419 3.3157 9.57745 3.45245C9.4407 3.58919 9.25524 3.66602 9.06185 3.66602C8.86846 3.66602 8.68299 3.58919 8.54625 3.45245C8.4095 3.3157 8.33268 3.13024 8.33268 2.93685C8.33268 2.74346 8.4095 2.558 8.54625 2.42125C8.68299 2.2845 8.86846 2.20768 9.06185 2.20768ZM5.99935 3.08268C6.7729 3.08268 7.51476 3.38997 8.06174 3.93695C8.60872 4.48394 8.91602 5.2258 8.91602 5.99935C8.91602 6.7729 8.60872 7.51476 8.06174 8.06174C7.51476 8.60872 6.7729 8.91602 5.99935 8.91602C5.2258 8.91602 4.48394 8.60872 3.93695 8.06174C3.38997 7.51476 3.08268 6.7729 3.08268 5.99935C3.08268 5.2258 3.38997 4.48394 3.93695 3.93695C4.48394 3.38997 5.2258 3.08268 5.99935 3.08268ZM5.99935 4.24935C5.53522 4.24935 5.0901 4.43372 4.76191 4.76191C4.43372 5.0901 4.24935 5.53522 4.24935 5.99935C4.24935 6.46348 4.43372 6.9086 4.76191 7.23679C5.0901 7.56497 5.53522 7.74935 5.99935 7.74935C6.46348 7.74935 6.9086 7.56497 7.23679 7.23679C7.56497 6.9086 7.74935 6.46348 7.74935 5.99935C7.74935 5.53522 7.56497 5.0901 7.23679 4.76191C6.9086 4.43372 6.46348 4.24935 5.99935 4.24935Z" fill="white"/>
</svg>
