<svg width="400" height="223" viewBox="0 0 400 223" fill="none" xmlns="http://www.w3.org/2000/svg">
<g clip-path="url(#clip0)">
<path fill-rule="evenodd" clip-rule="evenodd" d="M65.543 87.0195H85.4306L96.3784 113.269L85.8131 135.454L65.543 87.0195Z" fill="white"/>
<path fill-rule="evenodd" clip-rule="evenodd" d="M108.856 87.0195H129.461V135.502H108.856V87.0195Z" fill="white"/>
<path d="M164.982 109.109H162.352V91.8965L153.556 102.272L144.759 91.8965V109.109H142.13V87.2108H143.612L153.556 98.9728L163.5 87.2108H164.982V109.109ZM175.786 103.276L173.204 109.109H170.288L180.041 87.2108H181.523L191.275 109.109H188.359L185.778 103.276H175.786ZM180.853 91.7052L176.742 100.981H184.965L180.853 91.7052ZM201.649 89.5058V109.109H199.02V89.5058H191.706V87.2108H208.916V89.5058H201.649ZM213.888 87.2108H221.489C224.501 87.2108 226.987 87.928 228.852 89.3146C230.716 90.7489 231.672 92.6615 231.672 95.0521C231.672 96.8212 231.146 98.3034 230.047 99.5465C228.947 100.742 227.513 101.603 225.648 102.128C226.939 102.607 228.23 103.85 229.569 105.762L231.911 109.109H228.899L226.987 106.336C226.031 104.949 225.17 104.041 224.405 103.658C223.641 103.228 222.637 103.037 221.346 102.989H216.517V109.109H213.888V87.2108ZM216.517 89.5058V100.694H221.681C223.88 100.694 225.648 100.216 227.035 99.3075C228.421 98.3512 229.138 96.9646 229.138 95.0999C229.138 93.283 228.421 91.8965 227.035 90.9402C225.648 89.9839 223.832 89.5058 221.681 89.5058H216.517ZM239.273 90.2708C241.616 88.0714 244.437 87.0195 247.783 87.0195C251.13 87.0195 253.95 88.1192 256.293 90.2708C258.635 92.4702 259.83 95.0999 259.83 98.16C259.83 101.268 258.635 103.898 256.293 106.049C253.95 108.249 251.13 109.3 247.783 109.3C244.437 109.3 241.616 108.201 239.273 106.049C236.931 103.85 235.784 101.22 235.784 98.16C235.736 95.0999 236.931 92.4702 239.273 90.2708ZM254.428 91.8486C252.612 90.1274 250.365 89.3146 247.735 89.3146C245.106 89.3146 242.907 90.1752 241.09 91.8486C239.273 93.5699 238.365 95.6737 238.365 98.16C238.365 100.646 239.273 102.798 241.09 104.471C242.907 106.193 245.106 107.005 247.735 107.005C250.365 107.005 252.564 106.145 254.428 104.471C256.245 102.75 257.153 100.646 257.153 98.16C257.153 95.6737 256.245 93.5221 254.428 91.8486ZM272.69 87.0195H273.073C274.746 87.0195 276.324 87.3542 277.854 87.9758C279.383 88.6452 280.626 89.5058 281.63 90.6533L279.909 92.0877C279.097 91.2271 278.093 90.5099 276.85 90.0318C275.607 89.5536 274.364 89.2667 273.121 89.2667H272.738C271.352 89.2667 270.061 89.6014 268.961 90.2708C267.814 90.9402 267.24 91.8965 267.24 93.0918C267.24 94.048 267.671 94.7652 268.483 95.2434C269.296 95.7693 270.587 96.104 272.308 96.3431L274.89 96.6778C277.375 96.9646 279.288 97.5862 280.531 98.5903C281.822 99.5465 282.443 100.981 282.443 102.941C282.443 104.854 281.582 106.384 279.909 107.579C278.236 108.774 276.18 109.348 273.742 109.396H273.551C271.304 109.396 269.344 108.966 267.671 108.105C265.997 107.244 264.802 106.097 264.037 104.663L265.758 103.18C266.332 104.328 267.288 105.284 268.627 106.049C269.965 106.766 271.591 107.149 273.551 107.149H273.742C275.463 107.149 276.897 106.766 278.093 106.001C279.24 105.236 279.814 104.232 279.814 102.989C279.814 101.794 279.383 100.885 278.523 100.264C277.662 99.6422 276.324 99.2119 274.603 99.0206L272.021 98.7337C269.583 98.4468 267.719 97.8731 266.476 96.9646C265.233 96.104 264.611 94.8609 264.611 93.2352C264.611 91.4183 265.424 89.9361 267.001 88.7886C268.531 87.5933 270.444 87.0195 272.69 87.0195ZM290.092 90.2708C292.435 88.0714 295.255 87.0195 298.602 87.0195C301.948 87.0195 304.769 88.1192 307.111 90.2708C309.454 92.4702 310.649 95.0999 310.649 98.16C310.649 101.268 309.454 103.898 307.111 106.049C304.769 108.249 301.948 109.3 298.602 109.3C295.255 109.3 292.435 108.201 290.092 106.049C287.75 103.85 286.602 101.22 286.602 98.16C286.602 95.0999 287.75 92.4702 290.092 90.2708ZM305.247 91.8486C303.43 90.1274 301.183 89.3146 298.554 89.3146C295.925 89.3146 293.725 90.1752 291.909 91.8486C290.092 93.5221 289.184 95.6737 289.184 98.16C289.184 100.646 290.092 102.798 291.909 104.471C293.725 106.145 295.925 107.005 298.554 107.005C301.183 107.005 303.382 106.145 305.247 104.471C307.064 102.75 307.972 100.646 307.972 98.16C307.972 95.6737 307.111 93.5221 305.247 91.8486ZM324.609 109.109H323.174L313.278 87.2108H316.195L323.892 104.567L331.588 87.2108H334.505L324.609 109.109Z" fill="white"/>
<path d="M154.321 132.872L149.158 122.592L143.994 132.824H154.321V132.872ZM149.444 122.162L156.09 135.406H155.612L154.512 133.254H143.803L142.704 135.406H142.226L148.871 122.162H149.444ZM166.272 122.592V131.437H171.005C172.296 131.437 173.443 131.007 174.352 130.146C175.26 129.286 175.738 128.234 175.738 127.039C175.738 125.795 175.26 124.791 174.352 123.931C173.443 123.07 172.296 122.64 171.005 122.64H166.272V122.592ZM165.842 122.162H171.053C172.487 122.162 173.683 122.64 174.734 123.596C175.738 124.552 176.264 125.652 176.264 126.991C176.264 128.33 175.738 129.429 174.734 130.386C174.256 130.816 173.73 131.151 173.157 131.39L175.643 135.406H175.117L172.726 131.533C172.2 131.676 171.627 131.772 171.053 131.772H166.32V135.406H165.89V122.162H165.842ZM199.164 133.78C197.682 135.167 195.913 135.836 193.809 135.836C191.706 135.836 189.937 135.167 188.455 133.78C186.973 132.394 186.256 130.768 186.256 128.808C186.256 126.895 186.973 125.222 188.455 123.835C189.937 122.449 191.706 121.779 193.809 121.779C195.913 121.779 197.682 122.449 199.164 123.835L198.829 124.122C197.443 122.831 195.769 122.162 193.809 122.162C191.849 122.162 190.176 122.831 188.742 124.122C187.307 125.413 186.638 126.991 186.638 128.808C186.638 130.625 187.355 132.202 188.742 133.493C190.128 134.784 191.801 135.454 193.809 135.454C195.769 135.454 197.443 134.784 198.829 133.493L199.164 133.78ZM210.494 128.999V135.406H210.064V122.162H210.494V128.616H221.298V122.209H221.728V135.454H221.298V129.047H210.494V128.999ZM233.489 122.162V135.406H233.059V122.162H233.489ZM252.134 122.162V122.544H247.831V135.358H247.401V122.544H243.098V122.162H252.134ZM261.695 122.162H269.918V122.544H262.125V128.616H268.197V128.999H262.125V135.023H269.918V135.406H261.695V122.162ZM291.526 133.78C290.044 135.167 288.276 135.836 286.172 135.836C284.069 135.836 282.3 135.167 280.818 133.78C279.336 132.394 278.619 130.768 278.619 128.808C278.619 126.895 279.336 125.222 280.818 123.835C282.3 122.449 284.069 121.779 286.172 121.779C288.276 121.779 290.044 122.449 291.526 123.835L291.192 124.122C289.805 122.831 288.132 122.162 286.172 122.162C284.212 122.162 282.539 122.831 281.105 124.122C279.718 125.413 279.001 126.991 279.001 128.808C279.001 130.625 279.718 132.202 281.105 133.493C282.491 134.784 284.164 135.454 286.172 135.454C288.132 135.454 289.805 134.784 291.192 133.493L291.526 133.78ZM309.789 122.162V122.544H305.486V135.358H305.056V122.544H300.753V122.162H309.789ZM327.764 134.593C326.808 135.406 325.661 135.884 324.322 135.98C324.179 135.98 323.987 135.98 323.844 135.98C322.266 135.98 320.88 135.549 319.732 134.689C319.063 134.115 318.585 133.541 318.25 132.967L318.633 132.776C318.92 133.302 319.398 133.828 320.019 134.354C321.071 135.167 322.362 135.549 323.796 135.549C323.939 135.549 324.131 135.549 324.274 135.549C325.517 135.454 326.569 135.071 327.429 134.258C327.812 133.924 328.099 133.493 328.242 132.967C328.338 132.728 328.386 132.441 328.386 132.202C328.386 131.724 328.242 131.294 327.955 130.816C327.525 130.146 326.903 129.716 326.091 129.525L321.932 128.473C320.88 128.234 320.115 127.708 319.589 126.943C319.254 126.417 319.063 125.891 319.063 125.317C319.063 125.03 319.111 124.696 319.207 124.361C319.493 123.405 320.067 122.688 321.023 122.162C321.645 121.827 322.266 121.636 322.888 121.636C323.127 121.636 323.318 121.588 323.557 121.588C324.609 121.588 325.613 121.827 326.617 122.305C327.238 122.64 327.812 123.118 328.386 123.692L328.003 123.931C327.525 123.405 326.951 122.974 326.378 122.688C325.469 122.257 324.513 122.018 323.557 122.018C323.366 122.018 323.127 122.018 322.936 122.066C322.362 122.114 321.788 122.257 321.262 122.544C320.45 122.974 319.876 123.644 319.637 124.504C319.541 124.791 319.493 125.078 319.493 125.365C319.493 125.891 319.637 126.369 319.971 126.8C320.45 127.469 321.119 127.899 322.075 128.138L326.282 129.142C327.19 129.381 327.907 129.86 328.386 130.625C328.72 131.151 328.864 131.629 328.864 132.202C328.864 132.489 328.816 132.776 328.72 133.063C328.577 133.732 328.242 134.211 327.764 134.593Z" fill="white" stroke="white" stroke-width="0.2" stroke-miterlimit="10"/>
<path d="M399.522 0.478516H0.478516V222.522H399.522V0.478516Z" stroke="#828282" stroke-miterlimit="10"/>
</g>
<defs>
<clipPath id="clip0">
<rect width="400" height="223" fill="white"/>
</clipPath>
</defs>
</svg>
