<svg width="14" height="8" viewBox="0 0 14 8" fill="none" xmlns="http://www.w3.org/2000/svg">
<path d="M13.9258 7.21957C13.9088 7.18303 13.893 7.15273 13.8783 7.12845C13.6354 6.69098 13.1713 6.15402 12.4861 5.51741L12.4716 5.50283L12.4644 5.49568L12.457 5.48835H12.4497C12.1387 5.19191 11.9418 4.9926 11.8593 4.89055C11.7085 4.69616 11.6747 4.49939 11.7571 4.30002C11.8154 4.14939 12.0342 3.83128 12.4132 3.34525C12.6125 3.08767 12.7703 2.88123 12.8869 2.72569C13.7277 1.60796 14.0922 0.893708 13.9803 0.582666L13.9369 0.50998C13.9077 0.466221 13.8324 0.426188 13.7111 0.389679C13.5894 0.353247 13.434 0.347222 13.2444 0.371502L11.1452 0.386003C11.1112 0.373952 11.0626 0.375076 10.9993 0.389679C10.9362 0.404283 10.9045 0.41161 10.9045 0.41161L10.868 0.429865L10.839 0.451796C10.8147 0.466297 10.788 0.491803 10.7588 0.52826C10.7298 0.564591 10.7055 0.607227 10.6861 0.655812C10.4575 1.24381 10.1977 1.7905 9.90604 2.29586C9.72623 2.5972 9.56109 2.85835 9.41028 3.07947C9.25968 3.30052 9.13333 3.46338 9.03136 3.56777C8.92923 3.67227 8.83707 3.75599 8.7543 3.81923C8.67165 3.88249 8.60857 3.90922 8.56488 3.89944C8.5211 3.88967 8.47987 3.87996 8.44083 3.87026C8.37284 3.8265 8.31815 3.76699 8.27692 3.69167C8.23551 3.61636 8.20763 3.52156 8.19305 3.40736C8.17855 3.29309 8.16997 3.1948 8.16752 3.11215C8.16525 3.02961 8.1663 2.91286 8.17122 2.76223C8.17628 2.61152 8.17855 2.50955 8.17855 2.45609C8.17855 2.2714 8.18215 2.07096 8.18938 1.85471C8.19673 1.63847 8.20268 1.46713 8.20766 1.3409C8.21261 1.21455 8.21491 1.08087 8.21491 0.939944C8.21491 0.799014 8.20633 0.688491 8.18938 0.608274C8.17263 0.528158 8.14692 0.450391 8.11304 0.374999C8.07896 0.299683 8.02907 0.241422 7.96361 0.200062C7.89802 0.158754 7.81647 0.125972 7.71943 0.101616C7.46185 0.0433289 7.13386 0.0117984 6.7353 0.00689653C5.83148 -0.00280516 5.25073 0.0555581 4.99318 0.18191C4.89113 0.235295 4.79879 0.308236 4.71622 0.400504C4.62873 0.507452 4.61652 0.565816 4.67969 0.575416C4.9713 0.619099 5.17774 0.723596 5.29924 0.888806L5.34303 0.976351C5.37709 1.03951 5.41109 1.15134 5.44513 1.31167C5.47911 1.47201 5.50104 1.64937 5.51069 1.84366C5.53494 2.19846 5.53494 2.50217 5.51069 2.75482C5.48636 3.00758 5.46338 3.20434 5.44145 3.34527C5.41952 3.4862 5.38674 3.6004 5.34303 3.68785C5.29924 3.77531 5.27011 3.82878 5.25551 3.84818C5.24093 3.86758 5.22878 3.87981 5.21913 3.88461C5.15596 3.90881 5.09027 3.92115 5.02228 3.92115C4.95419 3.92115 4.87163 3.88709 4.77446 3.81902C4.67731 3.75096 4.57649 3.65746 4.47199 3.53839C4.3675 3.41929 4.24965 3.25285 4.11839 3.03906C3.98724 2.82526 3.85116 2.57259 3.71023 2.28102L3.59363 2.06958C3.52074 1.93355 3.42117 1.73548 3.29482 1.47555C3.16839 1.21552 3.05665 0.963994 2.9595 0.721017C2.92067 0.618971 2.86233 0.541281 2.78459 0.48782L2.74811 0.465889C2.72385 0.446485 2.68492 0.425882 2.63151 0.403925C2.57802 0.381994 2.52221 0.366267 2.46385 0.356591L0.4666 0.371093C0.262507 0.371093 0.124028 0.417329 0.0511126 0.509674L0.0219309 0.553357C0.00735286 0.577688 0 0.616546 0 0.670033C0 0.723494 0.0145781 0.789108 0.0437597 0.866798C0.335321 1.55204 0.652388 2.21291 0.99496 2.84949C1.33753 3.48608 1.63522 3.99886 1.88785 4.38739C2.14053 4.7762 2.39808 5.14315 2.66051 5.48807C2.92294 5.83312 3.09665 6.05424 3.18164 6.15139C3.26674 6.24871 3.33358 6.32147 3.38216 6.37006L3.56443 6.54497C3.68105 6.66162 3.85231 6.80132 4.07829 6.96408C4.30431 7.12694 4.55454 7.28727 4.82909 7.44534C5.1037 7.60314 5.42317 7.73192 5.78767 7.83151C6.15212 7.93121 6.50685 7.97122 6.8519 7.95192H7.69017C7.86018 7.93724 7.98899 7.88378 8.07653 7.79151L8.10553 7.75497C8.12504 7.72597 8.14329 7.68091 8.16014 7.62027C8.1772 7.55954 8.18567 7.49262 8.18567 7.41983C8.1807 7.21091 8.1966 7.02262 8.23296 6.85499C8.26929 6.6874 8.3107 6.56105 8.35701 6.47596C8.4033 6.39094 8.45554 6.3192 8.51367 6.26104C8.57193 6.20275 8.61344 6.16744 8.6378 6.15529C8.662 6.14306 8.68133 6.13477 8.69591 6.12979C8.81253 6.09093 8.94979 6.12856 9.10787 6.24286C9.26583 6.35706 9.41399 6.49807 9.55257 6.66565C9.69107 6.83339 9.85748 7.02158 10.0518 7.23049C10.2463 7.43949 10.4163 7.59484 10.5621 7.69704L10.7078 7.78451C10.8051 7.84288 10.9315 7.89634 11.087 7.94492C11.2422 7.99348 11.3783 8.00563 11.4951 7.98135L13.361 7.95225C13.5456 7.95225 13.6892 7.92169 13.7911 7.86105C13.8932 7.80032 13.9538 7.7334 13.9733 7.66061C13.9929 7.58775 13.9939 7.50508 13.977 7.41266C13.9598 7.32046 13.9427 7.256 13.9258 7.21957Z" fill="white"/>
</svg>
