<svg width="12" height="10" viewBox="0 0 12 10" fill="none" xmlns="http://www.w3.org/2000/svg">
<path d="M4.83268 6.74935L7.86018 4.99935L4.83268 3.24935V6.74935ZM11.576 2.18185C11.6518 2.45602 11.7043 2.82352 11.7393 3.29018C11.7802 3.75685 11.7977 4.15935 11.7977 4.50935L11.8327 4.99935C11.8327 6.27685 11.7393 7.21602 11.576 7.81685C11.4302 8.34185 11.0918 8.68018 10.5668 8.82601C10.2927 8.90185 9.79102 8.95435 9.02102 8.98935C8.26268 9.03018 7.56852 9.04768 6.92685 9.04768L5.99935 9.08268C3.55518 9.08268 2.03268 8.98935 1.43185 8.82601C0.906849 8.68018 0.568516 8.34185 0.422682 7.81685C0.346849 7.54268 0.294349 7.17518 0.259349 6.70852C0.218516 6.24185 0.201016 5.83935 0.201016 5.48935L0.166016 4.99935C0.166016 3.72185 0.259349 2.78268 0.422682 2.18185C0.568516 1.65685 0.906849 1.31852 1.43185 1.17268C1.70602 1.09685 2.20768 1.04435 2.97768 1.00935C3.73602 0.968516 4.43018 0.951016 5.07185 0.951016L5.99935 0.916016C8.44352 0.916016 9.96601 1.00935 10.5668 1.17268C11.0918 1.31852 11.4302 1.65685 11.576 2.18185Z" fill="white"/>
</svg>
