<svg xmlns="http://www.w3.org/2000/svg" viewBox="0 0 11.67 11.67"><path d="M3.38 0h4.9c1.87 0 3.38 1.52 3.38 3.38v4.9a3.383 3.383 0 01-3.38 3.38h-4.9C1.52 11.67 0 10.15 0 8.28v-4.9c0-.9.36-1.76.99-2.39C1.63.36 2.49 0 3.38 0zm-.11 1.17c-.56 0-1.09.22-1.48.62-.4.39-.62.92-.62 1.48V8.4c0 1.16.94 2.1 2.1 2.1H8.4c.56 0 1.09-.22 1.48-.62.39-.39.62-.93.62-1.48V3.27a2.1 2.1 0 00-2.1-2.1H3.27zm5.63.87c.19 0 .38.08.52.21.14.14.21.32.21.52 0 .19-.08.38-.21.52-.15.13-.33.21-.52.21s-.38-.08-.52-.21a.734.734 0 01-.21-.52c0-.19.08-.38.21-.52a.76.76 0 01.52-.21zm-3.07.88c.77 0 1.52.31 2.06.85.55.55.85 1.29.85 2.06s-.3 1.52-.84 2.07-1.29.85-2.07.85-1.51-.31-2.06-.85-.85-1.29-.85-2.07.31-1.52.85-2.06c.55-.55 1.29-.85 2.06-.85zm0 1.16c-.46 0-.91.18-1.24.51-.32.33-.51.78-.51 1.24s.19.91.52 1.24c.32.33.77.51 1.23.51a1.739 1.739 0 001.75-1.75c0-.47-.18-.91-.51-1.23-.33-.33-.77-.52-1.24-.52z" fill="#333"/></svg>