<svg xmlns="http://www.w3.org/2000/svg" viewBox="0 0 142.63 20"><path d="M0 0h8.2l4.53 10.83L8.36 20 0 0zm17.88 0h8.51v20h-8.51V0z" fill-rule="evenodd" clip-rule="evenodd" fill="#191919"/><path d="M47.5 16.56h-1.48V6.91l-4.93 5.82-4.93-5.82v9.65h-1.48V4.28h.83l5.57 6.6 5.57-6.6h.83v12.28h.02zm6.06-3.27l-1.44 3.27h-1.63l5.49-12.28h.83l5.47 12.28h-1.63l-1.44-3.27h-5.65zm2.83-6.48l-2.31 5.21h4.62l-2.31-5.21zm11.69-1.25v11H66.6v-11h-4.1V4.28h9.67v1.28h-4.09zm6.87-1.28h4.25c1.7 0 3.08.39 4.14 1.19 1.06.8 1.58 1.87 1.58 3.24 0 1-.3 1.83-.91 2.51-.61.68-1.44 1.16-2.48 1.44.73.28 1.45.96 2.19 2.03l1.32 1.87h-1.68l-1.07-1.57c-.54-.77-1.02-1.28-1.44-1.51-.42-.23-.99-.36-1.73-.36h-2.7v3.44h-1.48V4.28h.01zm1.48 1.28v6.28h2.89c1.22 0 2.24-.26 3.02-.78.78-.52 1.18-1.31 1.18-2.35 0-1.03-.39-1.81-1.18-2.34-.78-.54-1.8-.8-3.02-.8h-2.89v-.01zm12.76.43c1.31-1.22 2.9-1.83 4.76-1.83 1.87 0 3.45.61 4.78 1.83 1.32 1.22 1.97 2.7 1.97 4.43 0 1.73-.65 3.21-1.97 4.43-1.32 1.22-2.9 1.83-4.78 1.83-1.87 0-3.45-.61-4.76-1.83-1.31-1.22-1.97-2.7-1.97-4.43.01-1.73.66-3.21 1.97-4.43zm8.52.87c-1.02-.96-2.26-1.44-3.74-1.44-1.48 0-2.71.48-3.73 1.44S88.71 9 88.71 10.42s.51 2.6 1.52 3.56 2.26 1.44 3.73 1.44c1.48 0 2.73-.48 3.74-1.44 1.02-.96 1.54-2.13 1.54-3.56.01-1.42-.52-2.6-1.53-3.56zm10.24-2.71h.2c.93 0 1.83.17 2.67.54.86.36 1.55.87 2.1 1.51l-.96.81c-.45-.49-1.03-.87-1.73-1.16a5.59 5.59 0 00-2.11-.42h-.2c-.78 0-1.5.19-2.13.57-.64.38-.96.9-.96 1.58 0 .52.23.93.7 1.22.47.29 1.18.49 2.15.61l1.45.17c1.39.16 2.45.52 3.18 1.06s1.07 1.35 1.07 2.42c0 1.07-.46 1.94-1.41 2.61-.94.67-2.09 1-3.47 1.02h-.12c-1.28 0-2.38-.25-3.29-.73-.93-.48-1.61-1.13-2.03-1.94l.96-.83c.32.65.86 1.19 1.61 1.6.75.41 1.68.61 2.76.61h.12c.97 0 1.79-.22 2.42-.64.65-.42.97-.99.97-1.7 0-.67-.25-1.18-.74-1.52-.49-.35-1.23-.58-2.21-.71l-1.44-.16c-1.38-.16-2.41-.49-3.11-.99-.7-.49-1.04-1.19-1.04-2.09 0-1.03.45-1.86 1.33-2.5.93-.61 2-.93 3.26-.94zm9.79 1.84c1.31-1.22 2.9-1.83 4.76-1.83 1.87 0 3.45.61 4.78 1.83 1.32 1.22 1.97 2.7 1.97 4.43 0 1.73-.65 3.21-1.97 4.43-1.32 1.22-2.9 1.83-4.78 1.83-1.87 0-3.45-.61-4.76-1.83-1.31-1.22-1.97-2.7-1.97-4.43-.01-1.73.66-3.21 1.97-4.43zm8.5.87c-1.02-.96-2.26-1.44-3.74-1.44-1.48 0-2.71.48-3.73 1.44s-1.52 2.13-1.52 3.56c0 1.42.51 2.6 1.52 3.56s2.26 1.44 3.73 1.44c1.48 0 2.73-.48 3.74-1.44 1.02-.96 1.54-2.13 1.54-3.56 0-1.42-.51-2.6-1.54-3.56zm10.87 9.7h-.81l-5.56-12.28h1.63l4.32 9.74L141 4.28h1.63l-5.52 12.28z" fill="#191919"/></svg>