<svg xmlns="http://www.w3.org/2000/svg" xmlns:xlink="http://www.w3.org/1999/xlink" viewBox="0 0 400 223"><defs><path id="a" d="M0 0h400v223H0z"/></defs><clipPath id="b"><use xlink:href="#a" overflow="visible"/></clipPath><g clip-path="url(#b)"><path d="M65.54 87.02h19.89l10.95 26.25-10.57 22.18-20.27-48.43zm43.32 0h20.6v48.48h-20.6V87.02z" fill-rule="evenodd" clip-rule="evenodd" fill="#fff"/><path d="M164.98 109.11h-2.63V91.9l-8.8 10.38-8.8-10.38v17.21h-2.63v-21.9h1.48l9.94 11.76 9.94-11.76h1.48v21.9zm10.81-5.83l-2.58 5.83h-2.92l9.75-21.9h1.48l9.75 21.9h-2.92l-2.58-5.83h-9.98zm5.06-11.57l-4.11 9.28h8.22l-4.11-9.28zm20.8-2.2v19.6h-2.63v-19.6h-7.31v-2.29h17.21v2.29h-7.27zm12.24-2.3h7.6c3.01 0 5.5.72 7.36 2.1 1.86 1.43 2.82 3.35 2.82 5.74 0 1.77-.53 3.25-1.63 4.49-1.1 1.2-2.53 2.06-4.4 2.58 1.29.48 2.58 1.72 3.92 3.63l2.34 3.35h-3.01l-1.91-2.77c-.96-1.39-1.82-2.29-2.58-2.68-.76-.43-1.77-.62-3.06-.67h-4.83v6.12h-2.63V87.21zm2.63 2.3v11.19h5.16c2.2 0 3.97-.48 5.35-1.39 1.39-.96 2.1-2.34 2.1-4.21 0-1.82-.72-3.2-2.1-4.16-1.39-.96-3.2-1.43-5.35-1.43h-5.16zm22.75.76c2.34-2.2 5.16-3.25 8.51-3.25 3.35 0 6.17 1.1 8.51 3.25 2.34 2.2 3.54 4.83 3.54 7.89 0 3.11-1.19 5.74-3.54 7.89-2.34 2.2-5.16 3.25-8.51 3.25-3.35 0-6.17-1.1-8.51-3.25-2.34-2.2-3.49-4.83-3.49-7.89-.04-3.06 1.15-5.69 3.49-7.89zm15.16 1.58c-1.82-1.72-4.06-2.53-6.69-2.53-2.63 0-4.83.86-6.65 2.53-1.82 1.72-2.72 3.83-2.72 6.31 0 2.49.91 4.64 2.72 6.31 1.82 1.72 4.02 2.53 6.65 2.53 2.63 0 4.83-.86 6.69-2.53 1.82-1.72 2.73-3.82 2.73-6.31-.01-2.49-.92-4.64-2.73-6.31zm18.26-4.83h.38c1.67 0 3.25.33 4.78.96 1.53.67 2.77 1.53 3.78 2.68l-1.72 1.43a8.264 8.264 0 00-3.06-2.06c-1.24-.48-2.49-.77-3.73-.77h-.38c-1.39 0-2.68.33-3.78 1-1.15.67-1.72 1.63-1.72 2.82 0 .96.43 1.67 1.24 2.15.81.53 2.1.86 3.83 1.1l2.58.33c2.48.29 4.4.91 5.64 1.91 1.29.96 1.91 2.39 1.91 4.35 0 1.91-.86 3.44-2.53 4.64s-3.73 1.77-6.17 1.82h-.19c-2.25 0-4.21-.43-5.88-1.29-1.67-.86-2.87-2.01-3.63-3.44l1.72-1.48c.57 1.15 1.53 2.1 2.87 2.87 1.34.72 2.96 1.1 4.92 1.1h.19c1.72 0 3.15-.38 4.35-1.15 1.15-.76 1.72-1.77 1.72-3.01 0-1.19-.43-2.1-1.29-2.72-.86-.62-2.2-1.05-3.92-1.24l-2.58-.29c-2.44-.29-4.3-.86-5.54-1.77-1.24-.86-1.87-2.1-1.87-3.73 0-1.82.81-3.3 2.39-4.45 1.53-1.19 3.44-1.76 5.69-1.76zm17.4 3.25c2.34-2.2 5.16-3.25 8.51-3.25 3.35 0 6.17 1.1 8.51 3.25 2.34 2.2 3.54 4.83 3.54 7.89 0 3.11-1.19 5.74-3.54 7.89-2.34 2.2-5.16 3.25-8.51 3.25-3.35 0-6.17-1.1-8.51-3.25-2.34-2.2-3.49-4.83-3.49-7.89 0-3.06 1.15-5.69 3.49-7.89zm15.16 1.58c-1.82-1.72-4.06-2.53-6.69-2.53-2.63 0-4.83.86-6.64 2.53-1.82 1.67-2.73 3.83-2.73 6.31 0 2.49.91 4.64 2.73 6.31 1.82 1.67 4.02 2.53 6.64 2.53 2.63 0 4.83-.86 6.69-2.53 1.82-1.72 2.72-3.82 2.72-6.31 0-2.49-.86-4.64-2.72-6.31zm19.36 17.26h-1.43l-9.9-21.9h2.92l7.7 17.36 7.7-17.36h2.92l-9.91 21.9z" fill="#fff"/><path d="M154.32 132.87l-5.16-10.28-5.16 10.23h10.33v.05zm-4.88-10.71l6.65 13.24h-.48l-1.1-2.15H143.8l-1.1 2.15h-.48l6.65-13.24h.57zm16.83.43v8.84H171c1.29 0 2.44-.43 3.35-1.29.91-.86 1.39-1.91 1.39-3.11 0-1.24-.48-2.25-1.39-3.11-.91-.86-2.06-1.29-3.35-1.29h-4.73v-.04zm-.43-.43h5.21c1.43 0 2.63.48 3.68 1.43 1 .96 1.53 2.06 1.53 3.39 0 1.34-.53 2.44-1.53 3.4-.48.43-1 .76-1.58 1l2.49 4.02h-.53l-2.39-3.87c-.53.14-1.1.24-1.67.24h-4.73v3.63h-.43v-13.24h-.05zm33.32 11.62c-1.48 1.39-3.25 2.06-5.35 2.06-2.1 0-3.87-.67-5.35-2.06-1.48-1.39-2.2-3.01-2.2-4.97 0-1.91.72-3.59 2.2-4.97 1.48-1.39 3.25-2.06 5.35-2.06 2.1 0 3.87.67 5.35 2.06l-.34.29c-1.39-1.29-3.06-1.96-5.02-1.96-1.96 0-3.63.67-5.07 1.96-1.43 1.29-2.1 2.87-2.1 4.69s.72 3.39 2.1 4.68c1.39 1.29 3.06 1.96 5.07 1.96 1.96 0 3.63-.67 5.02-1.96l.34.28zm11.33-4.78v6.41h-.43v-13.24h.43v6.45h10.8v-6.41h.43v13.24h-.43v-6.41h-10.8V129zm23-6.84v13.24h-.43v-13.24h.43zm18.64 0v.38h-4.3v12.81h-.43v-12.81h-4.3v-.38h9.03zm9.57 0h8.22v.38h-7.79v6.07h6.07v.39h-6.07v6.02h7.79v.38h-8.22v-13.24zm29.83 11.62c-1.48 1.39-3.25 2.06-5.35 2.06-2.1 0-3.87-.67-5.35-2.06-1.48-1.39-2.2-3.01-2.2-4.97 0-1.91.72-3.59 2.2-4.97 1.48-1.39 3.25-2.06 5.35-2.06 2.1 0 3.87.67 5.35 2.06l-.33.29c-1.39-1.29-3.06-1.96-5.02-1.96s-3.63.67-5.07 1.96c-1.39 1.29-2.1 2.87-2.1 4.69s.72 3.39 2.1 4.68c1.39 1.29 3.06 1.96 5.07 1.96 1.96 0 3.63-.67 5.02-1.96l.33.28zm18.26-11.62v.38h-4.3v12.81h-.43v-12.81h-4.3v-.38h9.03zm17.97 12.43c-.96.81-2.1 1.29-3.44 1.39h-.48c-1.58 0-2.96-.43-4.11-1.29-.67-.57-1.15-1.15-1.48-1.72l.38-.19c.29.53.77 1.05 1.39 1.58 1.05.81 2.34 1.19 3.78 1.19h.48c1.24-.1 2.3-.48 3.15-1.29.38-.33.67-.76.81-1.29.1-.24.14-.53.14-.76 0-.48-.14-.91-.43-1.39-.43-.67-1.05-1.1-1.86-1.29l-4.16-1.05c-1.05-.24-1.82-.77-2.34-1.53-.33-.53-.53-1.05-.53-1.63 0-.29.05-.62.14-.96.29-.96.86-1.67 1.82-2.2.62-.33 1.24-.53 1.86-.53.24 0 .43-.05.67-.05 1.05 0 2.06.24 3.06.72.62.33 1.2.81 1.77 1.39l-.38.24c-.48-.53-1.05-.96-1.63-1.24-.91-.43-1.86-.67-2.82-.67-.19 0-.43 0-.62.05-.57.05-1.15.19-1.67.48-.81.43-1.39 1.1-1.63 1.96-.1.29-.14.57-.14.86 0 .53.14 1 .48 1.44.48.67 1.15 1.1 2.1 1.34l4.21 1c.91.24 1.63.72 2.1 1.48.33.53.48 1 .48 1.58 0 .29-.05.57-.14.86-.14.66-.48 1.14-.96 1.52z" fill="#fff" stroke="#fff" stroke-width=".2" stroke-miterlimit="10"/><path d="M399.52.48H.48v222.04h399.04V.48z" fill="none" stroke="#828282" stroke-miterlimit="10"/></g></svg>