<svg xmlns="http://www.w3.org/2000/svg" viewBox="0 0 64 64"><linearGradient id="a" gradientUnits="userSpaceOnUse" x1="47.965" y1="55.552" x2="15.96" y2=".117" gradientTransform="matrix(1 0 0 -1 .038 59.834)"><stop offset="0" stop-color="#ffe254"/><stop offset="1" stop-color="#f8b159"/></linearGradient><path d="M32 64c17.67 0 32-14.33 32-32S49.67 0 32 0 0 14.33 0 32s14.33 32 32 32z" fill="url(#a)"/><path d="M18 36c2.21 0 4-1.79 4-4s-1.79-4-4-4-4 1.79-4 4 1.79 4 4 4zm28 0c2.21 0 4-1.79 4-4s-1.79-4-4-4-4 1.79-4 4 1.79 4 4 4z" fill="#212731"/><path d="M42 48c-4.42-4.42-15.58-4.42-20 0" fill="none" stroke="#212731" stroke-width="1.28" stroke-miterlimit="10"/><path d="M50 54c0 2.21-1.79 4-4 4s-4-1.79-4-4 4-8 4-8 4 5.79 4 8z" fill="#3365af"/><path d="M54 28c-2-4-6-6-10-6m-34 6c2-4 6-6 10-6" fill="none" stroke="#212731" stroke-miterlimit="10"/></svg>