<svg version="1.1" id="Слой_1" xmlns="http://www.w3.org/2000/svg" xmlns:xlink="http://www.w3.org/1999/xlink" x="0" y="0" viewBox="0 0 16 16" xml:space="preserve"><style>.st1{fill:#fff}</style><defs><path id="SVGID_1_" d="M0 0h16v16H0z"/></defs><clipPath id="SVGID_2_"><use xlink:href="#SVGID_1_" overflow="visible"/></clipPath><g opacity=".8" clip-path="url(#SVGID_2_)"><path class="st1" d="M15.44 9.26c.48-4.02-.23-6.55-1.5-7.7C11.88-.4 4.93-.69 2.47 1.65 1.36 2.79.98 4.47.93 6.55c-.04 2.08-.09 5.97 3.53 7.03v1.61s-.02.65.39.78c.48.15.69-.15 2.18-1.92 2.48.22 4.39-.28 4.61-.35.5-.17 3.34-.55 3.8-4.44zm-8.16 3.65s-1.57 1.96-2.06 2.47c-.16.17-.34.15-.33-.18l.01-2.68C1.82 11.64 2 8.33 2.04 6.6c.03-1.73.35-3.16 1.29-4.11 2.16-2.02 8.25-1.57 9.8-.11 1.9 1.68 1.22 6.43 1.23 6.6-.39 3.25-2.69 3.46-3.11 3.6-.19.04-1.87.47-3.97.33z"/><path class="st1" d="M8.15 2.87c-.26 0-.26.4 0 .4 1.99.02 3.63 1.4 3.65 3.95 0 .27.39.27.39 0-.03-2.75-1.82-4.34-4.04-4.35z"/><path class="st1" d="M10.77 6.8c-.01.27.39.28.39.01.03-1.51-.9-2.76-2.65-2.89-.26-.02-.29.38-.03.4 1.52.11 2.32 1.15 2.29 2.48zm-.42 1.72c-.33-.19-.66-.07-.8.12l-.3.37c-.14.19-.42.16-.42.16-2.01-.53-2.55-2.63-2.55-2.63s-.02-.29.16-.44l.36-.3c.18-.14.3-.49.11-.83-.49-.89-.82-1.2-.99-1.43-.17-.23-.44-.28-.72-.13-.58.34-1.21.97-1.01 1.62.34.69.98 2.87 3 4.52.95.78 2.45 1.58 3.09 1.77l.01.01c.63.21 1.24-.45 1.56-1.04.14-.29.1-.56-.11-.74-.38-.37-.95-.78-1.39-1.03z"/><path class="st1" d="M8.78 5.4c.64.04.95.37.98 1.06.01.27.4.25.39-.02-.04-.89-.51-1.39-1.35-1.44-.26-.01-.28.39-.02.4z"/></g></svg>