<svg xmlns="http://www.w3.org/2000/svg" xmlns:xlink="http://www.w3.org/1999/xlink" viewBox="0 0 14 14"><defs><path id="a" d="M0 0h14v14H0z"/></defs><clipPath id="b"><use xlink:href="#a" overflow="visible"/></clipPath><g clip-path="url(#b)"><path d="M13.93 10.22c-.02-.04-.03-.07-.05-.09-.24-.44-.71-.97-1.39-1.61l-.02-.02h-.01l-.01-.01h-.01c-.31-.3-.51-.5-.59-.6-.15-.19-.18-.39-.1-.59.06-.15.28-.47.66-.95.2-.26.36-.46.47-.62.84-1.12 1.21-1.83 1.09-2.14l-.04-.07c-.03-.04-.1-.08-.23-.12-.12-.04-.28-.04-.47-.02l-2.1.01a.364.364 0 00-.15 0l-.08.02-.04.02-.03.02c-.02.01-.05.04-.08.08s-.05.08-.07.13c-.22.58-.48 1.13-.77 1.64-.18.3-.34.56-.5.78-.15.22-.28.38-.38.49-.1.1-.19.19-.28.25-.08.06-.14.09-.19.08l-.12-.03a.403.403 0 01-.16-.18.922.922 0 01-.09-.28l-.03-.3v-.35c.01-.15.01-.25.01-.31 0-.18 0-.39.01-.6.02-.21.02-.38.03-.51 0-.13.01-.26.01-.4s-.01-.25-.03-.33a.895.895 0 00-.08-.23.335.335 0 00-.15-.18.912.912 0 00-.24-.1 4.48 4.48 0 00-.98-.09c-.91-.01-1.49.05-1.75.17-.1.06-.19.13-.27.22-.09.11-.1.17-.04.17.29.04.5.15.62.31l.04.09c.03.06.07.17.1.34.04.16.06.34.07.53.02.35.02.66 0 .91-.02.26-.05.45-.07.6-.02.14-.05.25-.1.34-.04.09-.07.14-.08.16-.02.02-.03.03-.04.03-.06.02-.13.04-.2.04s-.15-.03-.25-.1-.2-.16-.3-.28c-.1-.12-.22-.29-.35-.5-.13-.21-.27-.47-.41-.76l-.12-.21c-.07-.14-.17-.33-.3-.59-.12-.26-.23-.52-.33-.76-.04-.1-.1-.18-.17-.23l-.04-.02c-.03-.02-.07-.04-.12-.07-.05-.02-.11-.03-.17-.04l-2 .01c-.2 0-.34.05-.42.14l-.02.04c-.01.03-.02.07-.02.12 0 .05.01.12.04.2.29.69.61 1.35.95 1.98.35.64.65 1.15.9 1.54.25.39.51.76.77 1.1.26.34.44.56.52.66.09.1.15.17.2.22l.18.17c.12.12.29.26.52.42.23.16.48.32.75.48.27.16.59.29.96.39.36.1.72.14 1.06.12h.84c.17-.01.3-.07.39-.16l.03-.04a.32.32 0 00.05-.13c.02-.06.03-.13.03-.2 0-.21.01-.4.05-.56.04-.17.08-.29.12-.38.05-.09.1-.16.16-.21.06-.06.1-.09.12-.11.02-.02.04-.03.06-.03.12-.04.25 0 .41.11.16.12.3.26.44.43.14.17.3.36.5.56.19.21.36.36.51.47l.15.09c.1.06.22.11.38.16s.29.06.41.04l1.87-.03c.18 0 .33-.03.43-.09.1-.06.16-.13.18-.2.02-.07.02-.16 0-.25-.02-.1-.04-.16-.05-.2z" fill="#fff"/></g></svg>