<svg xmlns="http://www.w3.org/2000/svg" viewBox="0 0 14 7.99"><path d="M13.93 7.21c-.02-.04-.03-.07-.05-.09-.24-.44-.71-.97-1.39-1.61l-.02-.01-.01-.01-.01-.01h-.01c-.31-.3-.51-.5-.59-.6-.15-.19-.18-.39-.1-.59.06-.15.28-.47.66-.95.2-.26.36-.46.47-.62.84-1.12 1.21-1.83 1.09-2.14L13.94.5c-.03-.04-.1-.08-.23-.12-.12-.04-.28-.04-.47-.02l-2.1.01a.364.364 0 00-.15 0c-.05.03-.09.04-.09.04l-.04.02-.03.02c-.02.01-.05.04-.08.08s-.05.08-.07.13c-.23.59-.49 1.13-.78 1.64-.18.3-.34.56-.5.78-.14.21-.27.38-.37.48-.1.1-.19.19-.28.25-.08.07-.14.09-.19.08l-.12-.03a.403.403 0 01-.16-.18.837.837 0 01-.09-.28l-.03-.3v-.35c.02-.14.02-.25.02-.3 0-.18 0-.39.01-.6.01-.22.01-.39.02-.51 0-.13.01-.26.01-.4S8.21.69 8.19.61a.847.847 0 00-.08-.24.376.376 0 00-.15-.18.67.67 0 00-.24-.09C7.46.04 7.13.01 6.74 0 5.84-.01 5.26.05 5 .18c-.11.05-.2.12-.28.21-.09.11-.1.17-.04.18.29.04.5.15.62.31l.04.09c.03.06.07.17.1.34.04.16.06.33.07.53.02.35.02.66 0 .91s-.05.45-.07.59c-.02.14-.05.26-.1.34-.04.09-.07.14-.08.16l-.04.04c-.06.02-.13.04-.2.04s-.15-.03-.25-.1-.2-.16-.3-.28c-.1-.12-.22-.29-.35-.5-.13-.22-.27-.47-.41-.76l-.12-.22c-.07-.14-.17-.33-.3-.59-.12-.26-.23-.51-.33-.75-.04-.1-.1-.18-.17-.23L2.75.46a.845.845 0 00-.29-.11l-2 .01C.26.36.12.41.04.5L.02.55C.01.57 0 .61 0 .66s.01.12.04.2c.29.69.61 1.35.95 1.98.34.64.64 1.15.89 1.54.25.39.51.76.77 1.1.27.35.45.57.53.67.09.1.15.17.2.22l.18.17c.12.12.29.26.52.42.22.16.47.32.75.48.27.16.59.29.96.39.36.1.72.14 1.06.12h.84c.17-.01.3-.07.39-.16l.03-.04a.32.32 0 00.05-.13c.02-.06.03-.13.03-.2 0-.21.01-.4.05-.56.04-.17.08-.29.12-.38.05-.09.1-.16.16-.21.06-.06.1-.09.12-.11a.21.21 0 01.06-.04c.12-.04.25 0 .41.11.16.11.31.26.44.42.14.17.3.36.5.56.19.21.36.36.51.47l.15.09c.1.06.22.11.38.16.15.06.29.07.41.05l1.87-.03c.18 0 .33-.03.43-.09.1-.06.16-.13.18-.2.02-.07.02-.16 0-.25-.02-.1-.04-.16-.05-.2z" fill="#333"/></svg>