<svg xmlns="http://www.w3.org/2000/svg" viewBox="0 0 14.93 15"><path d="M12.75 2.18A7.351 7.351 0 007.5 0C3.4 0 .06 3.33.06 7.43c0 1.31.34 2.59.99 3.72L0 15l3.94-1.03a7.434 7.434 0 0010.98-6.53c.01-1.99-.76-3.86-2.17-5.26zM7.5 13.62c-1.11 0-2.2-.3-3.15-.86l-.23-.13-2.34.61.62-2.28-.15-.23a6.28 6.28 0 01-.93-3.3c0-3.41 2.77-6.18 6.18-6.18 1.65 0 3.2.64 4.37 1.81a6.134 6.134 0 011.81 4.37c-.01 3.41-2.78 6.19-6.18 6.19zm3.38-4.63c-.19-.09-1.1-.54-1.27-.6-.17-.07-.29-.1-.41.09s-.48.6-.59.73c-.11.12-.22.14-.4.04-.19-.09-.79-.29-1.5-.92-.55-.49-.92-1.1-1.03-1.29-.11-.19 0-.28.08-.38.2-.25.4-.51.46-.64.07-.11.04-.22-.01-.32-.05-.09-.42-1-.57-1.37-.15-.36-.3-.31-.42-.32C5.11 4 4.99 4 4.86 4c-.12 0-.33.05-.5.23-.16.19-.64.64-.64 1.55s.67 1.8.76 1.92c.09.12 1.31 2 3.17 2.8.44.19.79.31 1.06.39.44.14.85.12 1.17.07.36-.05 1.1-.45 1.25-.88.15-.43.15-.81.11-.88-.05-.07-.17-.12-.36-.21z" fill-rule="evenodd" clip-rule="evenodd" fill="#fff" opacity=".8"/></svg>