<svg xmlns="http://www.w3.org/2000/svg" viewBox="0 0 11.67 8.17"><path d="M4.67 5.83L7.7 4.08 4.67 2.33v3.5zm6.74-4.56c.08.27.13.64.16 1.11.04.47.06.87.06 1.22l.04.49c0 1.28-.09 2.22-.26 2.82-.15.53-.48.86-1.01 1.01-.27.08-.78.13-1.55.16-.75.03-1.45.05-2.09.05l-.93.04c-2.44 0-3.97-.09-4.57-.26-.52-.15-.86-.48-1-1.01-.08-.27-.13-.64-.17-1.11-.04-.46-.05-.87-.05-1.22L0 4.08C0 2.8.09 1.86.26 1.26.4.74.74.4 1.27.26 1.54.18 2.05.13 2.82.1 3.58.06 4.27.04 4.91.04L5.83 0C8.28 0 9.8.09 10.4.26c.53.14.86.48 1.01 1.01z" fill="#333"/></svg>