<svg width="104" height="22" viewBox="0 0 104 22" fill="none" xmlns="http://www.w3.org/2000/svg">
<path d="M7.44553 1.35344C7.60002 0.689215 8.37246 0.728288 8.87455 0.728288C10.1684 0.728288 11.4815 0.532927 12.7754 0.669679C12.3892 3.34612 11.9064 6.02257 11.4622 8.69901C11.4429 9.05066 11.0374 8.93344 10.825 8.83576C9.58905 8.34736 8.31453 7.87849 7.07862 7.39009C6.65378 7.25334 6.46067 6.78447 6.59584 6.35468C6.88551 4.67458 7.11724 3.01401 7.44553 1.35344ZM17.6804 5.14344C18.2983 5.0653 18.897 4.92854 19.5149 4.88947C19.9205 4.8504 20.2101 5.20205 20.326 5.5537C20.7895 6.82354 21.2722 8.09339 21.7357 9.38277C21.8516 9.59767 21.6778 9.85164 21.4267 9.8321C18.839 10.2228 16.2514 10.6331 13.6444 10.9847C13.2195 10.9066 13.4513 10.3791 13.4126 10.0861C13.5092 8.8553 13.5285 7.60499 13.6251 6.37421C13.6444 6.02257 13.934 5.69045 14.2816 5.65138C15.421 5.47555 16.541 5.31927 17.6804 5.14344ZM1.22738 6.60865C1.40117 6.29607 1.74877 6.64772 1.98051 6.70633C4.10472 7.80035 6.20962 8.89437 8.33384 9.98839C8.56557 10.0861 8.93248 10.3205 8.64281 10.5745C7.77382 11.6685 6.88551 12.743 6.01651 13.837C5.76547 14.1886 5.26338 14.3059 4.89647 14.0519C3.40952 13.3095 1.92257 12.5476 0.454934 11.7662C0.0107802 11.5903 -0.0857751 11.0433 0.0687132 10.6331C0.454934 9.30463 0.783222 7.9371 1.22738 6.60865ZM16.3093 12.3718C16.7148 12.2155 17.2748 12.2546 17.4873 12.7039C18.279 14.2082 19.0322 15.7125 19.7853 17.2167C20.017 17.5879 19.9011 18.0959 19.5342 18.3303C18.4528 19.1899 17.3714 20.069 16.29 20.9091C16.0776 21.1435 15.8072 20.9481 15.73 20.7137C14.5713 18.3889 13.3547 16.1032 12.2154 13.7589C12.1381 13.4072 12.6016 13.3877 12.814 13.3095C13.992 12.9969 15.1506 12.6844 16.3093 12.3718ZM8.81661 13.544C8.9711 13.3681 9.28008 13.0556 9.4925 13.3486C10.2843 14.5208 11.0374 15.7125 11.8098 16.9042C12.0416 17.2363 12.0222 17.7247 11.7133 17.9786C10.516 19.1899 9.29939 20.3816 8.08279 21.5537C7.69657 21.9835 7.11724 21.7296 6.73102 21.4365C5.59167 20.6356 4.37507 19.9518 3.29366 19.0727C5.05096 17.1581 7.00138 15.3999 8.81661 13.544Z" fill="#F7F7F7"/>
<path d="M47.7866 5.53312C49.8722 5.12286 52.2089 5.70894 53.7151 7.27183C55.6849 9.24497 55.7814 12.7419 53.9275 14.8323C51.7068 17.3915 47.4583 17.6064 44.89 15.4574C43.0554 13.9532 42.4568 11.1986 43.3644 9.03008C44.0982 7.15461 45.8748 5.88477 47.7866 5.53312ZM48.1535 7.66255C47.0914 7.87745 46.1452 8.61982 45.7397 9.6357C45.1603 11.0618 45.4114 12.8982 46.6087 13.9336C47.9025 15.0277 49.9302 15.1058 51.3399 14.1485C53.1937 12.8787 53.271 9.75291 51.533 8.36585C50.5867 7.60394 49.3122 7.40858 48.1535 7.66255ZM92.9359 6.8225C93.7662 5.96291 94.9828 5.6308 96.1415 5.49405C98.4395 5.27915 100.931 5.61126 102.804 7.07647C102.398 7.68209 102.012 8.28771 101.607 8.89333C99.9072 7.70162 97.7443 7.42812 95.736 7.77977C95.1952 7.87745 94.5194 8.24863 94.5966 8.91286C94.6545 9.38173 95.1566 9.55755 95.5428 9.61616C97.0105 9.85059 98.5167 9.92874 99.9844 10.1632C101.046 10.3585 102.186 10.8274 102.727 11.8237C103.325 12.9764 103.19 14.5393 102.244 15.4574C101.529 16.1607 100.564 16.5124 99.6175 16.7078C96.9139 17.2157 93.94 16.8836 91.7 15.1449C92.0862 14.5002 92.4917 13.8555 92.8779 13.2108C94.6932 14.5393 97.0491 15.0277 99.2506 14.5783C99.772 14.4611 100.351 14.2462 100.602 13.7383C100.834 13.2499 100.564 12.5856 100.023 12.488C97.9567 12.0386 95.736 12.2535 93.7469 11.4526C91.9896 10.7688 91.6227 8.13142 92.9359 6.8225ZM30.4453 5.66987C32.5888 5.66987 34.7324 5.66987 36.8952 5.66987C38.0925 5.65033 39.3284 6.06059 40.1974 6.90064C41.6071 8.24863 41.8388 10.6125 40.8153 12.2731C40.0622 13.4843 38.6332 14.1485 37.2621 14.2071C35.8331 14.2462 34.3848 14.2071 32.9364 14.2267C32.9364 15.0277 32.9364 15.8482 32.9364 16.6492C32.1061 16.6492 31.2757 16.6492 30.4453 16.6492C30.4453 12.9764 30.4453 9.32312 30.4453 5.66987ZM32.9364 7.95559C32.9364 9.28405 32.9364 10.6125 32.9364 11.941C34.2496 11.941 35.5821 11.9605 36.8952 11.941C37.5711 11.941 38.2663 11.6674 38.6525 11.0814C39.058 10.4171 39.0387 9.51848 38.6525 8.85425C38.2856 8.24863 37.5711 7.93606 36.8952 7.93606C35.5821 7.93606 34.2496 7.95559 32.9364 7.95559ZM57.0559 5.66987C57.8863 5.66987 58.7167 5.66987 59.5471 5.66987C59.5664 8.54168 59.5278 11.433 59.5664 14.3048L59.6243 14.3634C62.1154 14.4025 64.6066 14.3634 67.117 14.383C67.117 15.1253 67.117 15.8872 67.117 16.6296C63.7569 16.6296 60.4161 16.6296 57.0559 16.6296C57.0559 12.9764 57.0559 9.32312 57.0559 5.66987ZM64.8576 5.66987C65.8038 5.66987 66.7694 5.66987 67.7156 5.66987C68.8936 7.64302 70.0716 9.6357 71.2689 11.5893C72.4855 9.65523 73.5862 7.64302 74.7449 5.66987C75.6911 5.65033 76.6566 5.66987 77.6029 5.66987C75.9808 8.28771 74.3393 10.9055 72.6979 13.5038C72.582 13.6992 72.4275 13.9141 72.4468 14.1681C72.4275 14.9886 72.4468 15.8091 72.4468 16.6296C71.6358 16.6492 70.8054 16.6492 69.9943 16.6492C69.975 15.731 70.0523 14.8128 69.9557 13.8946C68.295 11.14 66.557 8.42446 64.8576 5.66987ZM78.8774 5.66987C79.7078 5.66987 80.5382 5.66987 81.3685 5.66987C81.3879 7.66255 81.3492 9.65523 81.3879 11.6479C81.4072 12.781 81.9093 14.0118 83.01 14.4611C84.0721 14.8909 85.3852 14.8714 86.3894 14.2462C87.3163 13.6406 87.6253 12.488 87.6253 11.433C87.6446 9.51848 87.6253 7.60394 87.6253 5.66987C88.4557 5.66987 89.2861 5.66987 90.0971 5.65033C90.1358 7.50626 90.0971 9.38173 90.1164 11.2377C90.1164 12.7224 89.7302 14.3048 88.6681 15.3793C87.6639 16.4343 86.1963 16.864 84.7866 16.9031C83.2803 16.9617 81.6582 16.6101 80.5189 15.5356C79.3795 14.5002 78.916 12.9178 78.8967 11.4135C78.8774 9.51848 78.8774 7.60394 78.8774 5.66987Z" fill="white"/>
</svg>
